<?xml version="1.0" standalone="no"?>
<!DOCTYPE svg PUBLIC "-//W3C//DTD SVG 20010904//EN"
 "http://www.w3.org/TR/2001/REC-SVG-20010904/DTD/svg10.dtd">
<svg version="1.0" xmlns="http://www.w3.org/2000/svg"
 width="2085.000000pt" height="2085.000000pt" viewBox="0 0 2085.000000 2085.000000"
 preserveAspectRatio="xMidYMid meet">
<metadata>
Created by potrace 1.11, written by Peter Selinger 2001-2013
</metadata>
<g transform="translate(0.000000,2085.000000) scale(0.100000,-0.100000)"
fill="#000000" stroke="none">
<path d="M11904 18404 c-1055 -1059 -1920 -1928 -1922 -1932 -1 -4 28 -9 65
-11 38 -1 95 -4 128 -6 33 -2 114 -6 180 -9 66 -4 152 -8 190 -11 39 -3 117
-7 175 -10 58 -3 139 -7 180 -10 41 -3 127 -7 190 -10 141 -6 268 -13 380 -20
47 -3 128 -8 180 -10 52 -3 136 -7 185 -10 50 -3 128 -7 175 -9 47 -3 135 -8
195 -11 61 -4 142 -8 180 -10 142 -7 302 -15 370 -20 64 -4 132 -8 355 -20 41
-2 134 -7 205 -10 72 -4 155 -8 185 -10 l55 -2 -1 -64 c-1 -71 -13 -335 -19
-389 -2 -19 -6 -73 -10 -120 -3 -47 -7 -96 -9 -110 -2 -14 -7 -54 -11 -90 -4
-36 -9 -72 -10 -81 -2 -9 -6 -40 -10 -70 -6 -46 -14 -94 -49 -279 -7 -37 -24
-121 -31 -150 -3 -14 -8 -35 -11 -48 -43 -205 -200 -688 -289 -887 -7 -16 -28
-64 -46 -105 -36 -85 -150 -318 -196 -400 -17 -30 -48 -84 -68 -120 -21 -36
-43 -74 -49 -85 -105 -182 -319 -480 -502 -698 -126 -151 -385 -418 -515 -532
-51 -44 -97 -85 -103 -90 -10 -9 -121 -100 -156 -128 -335 -266 -818 -546
-1215 -702 -291 -115 -519 -182 -886 -260 -15 -3 -31 -6 -121 -20 -33 -5 -74
-12 -125 -19 -169 -24 -413 -40 -628 -39 -156 0 -374 9 -435 18 -14 2 -52 6
-85 10 -80 8 -182 22 -285 40 -132 23 -143 25 -180 35 -19 5 -50 12 -69 15
-19 3 -37 8 -41 10 -3 2 -18 6 -32 9 -207 37 -671 208 -965 354 -266 133 -622
354 -803 499 -41 32 -107 87 -125 102 -12 9 -27 21 -34 26 -10 6 -570 -550
-2022 -2006 -1104 -1107 -2006 -2015 -2005 -2017 3 -2 206 74 301 113 11 5 22
9 25 10 3 1 14 5 25 10 30 12 735 283 1005 386 129 50 244 94 255 99 11 5 92
37 180 71 88 33 210 80 270 103 272 107 482 186 490 186 6 0 26 -23 45 -51 19
-29 42 -60 50 -70 8 -10 40 -50 70 -90 52 -69 220 -276 267 -329 12 -14 31
-36 43 -50 138 -160 486 -514 639 -650 46 -41 89 -80 95 -85 6 -6 38 -33 71
-60 32 -28 66 -57 75 -65 67 -61 431 -338 520 -396 25 -16 47 -31 50 -34 22
-24 357 -235 539 -340 183 -105 485 -258 666 -339 77 -34 149 -66 160 -71 61
-29 352 -139 490 -186 209 -72 464 -149 630 -190 135 -33 235 -56 296 -68 42
-9 83 -18 90 -20 8 -3 30 -7 49 -10 19 -3 58 -10 85 -15 28 -5 70 -12 95 -16
25 -3 52 -8 60 -10 8 -3 47 -9 85 -14 39 -6 87 -13 108 -16 83 -12 105 -14
167 -20 36 -4 76 -8 90 -11 14 -2 63 -6 110 -10 47 -3 95 -7 108 -9 150 -24
975 -24 1182 0 19 2 67 6 105 10 97 8 196 19 280 31 17 2 46 6 65 8 161 20
455 73 642 116 73 17 144 33 158 36 14 2 32 7 40 10 8 3 26 8 40 10 14 3 36 9
50 14 14 5 34 11 45 13 44 8 288 82 460 139 487 164 1051 424 1501 693 411
246 873 588 1235 915 117 105 450 439 544 544 39 43 81 91 95 106 14 15 32 36
40 46 9 11 58 71 111 134 192 231 402 523 575 800 83 131 189 312 207 350 4 8
17 31 29 50 23 38 248 485 248 493 0 3 16 40 35 82 120 259 276 693 370 1025
48 171 91 337 100 389 3 19 8 37 10 41 2 4 6 20 9 36 3 16 16 83 30 149 13 66
27 140 31 165 3 25 8 52 10 60 2 8 6 33 10 55 3 22 7 51 10 65 12 74 31 224
40 305 3 33 8 74 10 90 2 17 7 71 10 120 4 50 9 101 11 115 2 14 6 106 10 205
13 304 8 679 -11 906 -3 35 -8 91 -10 124 -3 33 -7 78 -10 100 -2 22 -7 59 -9
83 -3 23 -8 70 -12 105 -4 34 -8 67 -9 72 -1 6 -5 33 -9 60 -11 74 -13 86 -20
125 -3 19 -8 46 -10 60 -53 336 -160 767 -280 1130 -51 157 -141 401 -162 442
-8 15 -15 31 -15 35 -2 10 -17 51 -28 78 -27 61 -42 95 -61 140 -111 259 -351
720 -485 930 -163 257 -212 330 -308 465 -61 85 -143 196 -181 245 -88 113
-246 307 -260 320 -6 6 -29 30 -50 55 -214 247 -502 532 -805 794 -350 302
-854 651 -1271 878 -36 19 -104 56 -151 81 l-85 46 -1920 -1925z"/>
<path d="M19255 19380 c-23 -9 -149 -48 -380 -115 -88 -26 -212 -63 -275 -82
-63 -19 -124 -38 -135 -40 -11 -3 -117 -35 -235 -70 -118 -35 -222 -66 -230
-68 -8 -2 -44 -13 -80 -24 -36 -10 -119 -35 -185 -55 -66 -19 -203 -60 -305
-91 -102 -31 -194 -58 -204 -60 -11 -3 -40 -11 -66 -20 -26 -9 -55 -17 -66
-20 -10 -2 -64 -18 -119 -35 -55 -17 -107 -33 -115 -35 -8 -2 -37 -11 -65 -19
-27 -8 -85 -24 -127 -36 -43 -12 -78 -25 -78 -29 0 -3 16 -24 35 -46 50 -57
42 -48 182 -233 71 -94 153 -207 183 -252 30 -45 61 -88 68 -95 6 -8 12 -18
12 -24 0 -5 4 -12 9 -16 8 -4 2177 1432 2216 1466 12 11 -13 11 -40 -1z"/>
<path d="M18328 18452 c-609 -405 -1107 -740 -1108 -745 0 -4 12 -26 27 -50
78 -124 228 -391 315 -562 33 -66 63 -122 65 -125 3 -3 11 4 19 14 7 11 29 38
47 60 41 49 357 435 401 490 17 21 36 43 41 50 6 6 28 34 50 61 21 28 42 52
45 55 3 3 21 25 40 50 19 25 37 47 40 50 5 4 34 40 138 168 15 18 32 39 37 45
12 13 82 101 105 131 8 10 22 26 30 35 13 14 82 99 123 151 24 31 102 125 107
130 3 3 32 39 65 80 206 255 369 456 374 460 4 3 31 37 61 75 30 39 58 72 63
73 7 4 30 42 25 42 -2 0 -501 -332 -1110 -738z"/>
<path d="M3729 16616 c0 -1 -3 -41 -7 -91 -15 -199 -7 -795 13 -950 2 -16 6
-57 9 -90 4 -33 8 -69 10 -80 2 -11 7 -42 10 -70 7 -52 21 -139 41 -250 6 -33
60 -276 69 -310 2 -5 6 -23 11 -40 26 -103 72 -258 112 -375 329 -971 917
-1806 1700 -2416 418 -325 876 -572 1363 -734 205 -69 390 -118 580 -155 109
-21 246 -42 330 -50 36 -4 71 -8 78 -10 71 -23 768 -24 887 -1 11 2 52 7 90
10 346 34 803 152 1175 303 126 51 443 203 535 256 22 13 56 33 75 44 450 260
916 651 1265 1064 164 193 254 313 390 519 273 412 494 877 640 1346 26 82 49
159 51 171 2 12 9 35 15 50 6 16 10 30 10 33 0 3 4 23 10 45 6 22 13 51 16 65
2 14 10 50 18 80 13 50 44 207 51 255 1 11 9 63 18 115 9 52 18 118 21 145 3
28 7 64 10 80 10 71 24 245 31 396 l5 125 -23 1 c-41 1 -301 14 -358 17 -30 2
-113 7 -185 11 -71 4 -150 8 -175 10 -25 1 -108 6 -185 9 -77 4 -165 9 -195
11 -30 3 -104 7 -165 10 -60 3 -146 7 -190 10 -44 2 -134 7 -200 10 -66 3
-147 8 -180 10 -55 3 -167 9 -380 20 -197 10 -295 16 -360 20 -70 5 -208 12
-380 20 -49 3 -130 7 -180 10 -214 13 -266 16 -365 20 -58 3 -136 7 -175 10
-38 2 -124 7 -190 10 -66 3 -151 8 -190 10 -38 3 -117 7 -175 10 -317 17 -413
22 -562 30 -127 8 -222 13 -363 20 -66 3 -154 8 -195 10 -41 2 -124 7 -185 10
-60 3 -141 8 -180 10 -38 2 -115 7 -170 10 -55 3 -143 7 -195 10 -147 9 -277
16 -365 20 -97 4 -256 13 -385 21 -52 3 -135 7 -185 9 -103 5 -247 13 -350 20
-38 2 -119 7 -180 10 -60 3 -141 7 -180 10 -38 2 -124 7 -190 10 -125 6 -230
11 -375 20 -47 3 -134 7 -195 10 -60 3 -144 8 -185 10 -73 5 -140 8 -365 20
-60 3 -135 8 -165 10 -30 2 -116 7 -190 10 -74 4 -154 8 -177 9 -24 2 -43 2
-44 2z"/>
<path d="M9059 5298 c0 -18 -2 -53 -4 -78 -2 -25 -6 -99 -9 -165 -4 -66 -8
-156 -11 -200 -2 -44 -7 -132 -10 -195 -3 -63 -8 -146 -10 -185 -3 -38 -7
-117 -10 -175 -3 -58 -7 -139 -10 -180 -3 -41 -7 -129 -10 -195 -3 -66 -8
-147 -10 -180 -2 -33 -7 -114 -10 -180 -16 -317 -25 -482 -30 -560 -4 -66 -9
-157 -20 -370 -3 -49 -7 -126 -10 -170 -2 -44 -7 -132 -10 -195 -3 -63 -8
-151 -10 -195 -3 -44 -7 -125 -10 -180 -3 -55 -7 -134 -10 -175 -2 -41 -7
-127 -10 -190 -3 -63 -8 -146 -10 -184 -4 -66 -13 -227 -19 -369 -6 -119 24
-202 97 -271 117 -111 294 -119 419 -19 38 31 90 100 93 123 1 3 6 21 12 40 7
19 15 89 18 155 3 66 8 152 11 190 2 39 6 117 9 175 6 132 18 353 29 545 3 50
8 135 11 190 3 55 7 134 9 175 3 41 7 129 11 195 8 174 15 290 20 370 2 39 7
124 10 190 3 66 8 149 10 185 3 36 7 117 10 180 3 63 7 142 9 175 3 33 7 125
11 205 4 80 8 161 10 181 2 20 6 97 10 172 3 74 7 159 10 189 2 29 7 109 10
178 3 68 8 158 10 200 5 75 9 158 20 390 4 69 8 132 11 142 7 23 0 25 -91 32
-44 4 -91 9 -105 11 -14 2 -54 6 -90 9 -36 4 -76 8 -90 11 -14 2 -47 7 -75 10
-47 5 -67 8 -152 21 -31 5 -33 3 -34 -28z"/>
<path d="M11089 5276 c-2 -2 -47 -7 -99 -11 -52 -4 -111 -9 -130 -11 -19 -2
-109 -6 -200 -9 -222 -8 -207 -3 -209 -72 -1 -32 -4 -83 -6 -113 -2 -30 -6
-113 -10 -185 -6 -122 -9 -176 -20 -370 -7 -118 -16 -291 -20 -365 -4 -80 -15
-281 -20 -375 -14 -239 -16 -289 -20 -370 -3 -49 -7 -130 -10 -180 -8 -133
-15 -258 -20 -365 -5 -104 -12 -226 -20 -365 -3 -49 -7 -135 -10 -190 -3 -55
-8 -136 -10 -180 -2 -44 -7 -134 -10 -200 -3 -66 -8 -142 -10 -170 -2 -27 -6
-106 -10 -175 -3 -69 -8 -161 -10 -205 -3 -44 -7 -132 -10 -195 -3 -63 -8
-140 -10 -170 -15 -172 -5 -239 48 -316 122 -182 382 -192 515 -18 62 80 64
93 87 544 4 84 11 214 21 380 5 89 10 195 19 370 3 58 7 132 10 165 3 33 7
112 10 175 3 63 7 151 10 195 6 113 14 252 20 380 3 61 8 148 11 195 13 235
16 300 29 545 3 61 7 144 10 185 2 41 7 120 10 175 3 55 7 141 10 190 6 86 10
164 20 360 2 50 7 137 10 195 10 171 14 248 20 385 3 72 8 140 11 153 4 21 2
27 -7 18z"/>
</g>
</svg>
