<svg xmlns="http://www.w3.org/2000/svg" viewBox="0 0 1864 254.99"><defs><style>.cls-1{fill:#fff;}</style></defs><g id="Layer_2" data-name="Layer 2"><g id="Layer_1-2" data-name="Layer 1"><rect class="cls-1" x="542.09" y="0.05" width="44.87" height="254.9" rx="4.12"/><path class="cls-1" d="M1090,250.71V150.45a2.59,2.59,0,0,0-2.61-2.47H966.9c-1.37,0-2.91,1.1-2.91,2.47V250.71a4.12,4.12,0,0,1-4.13,4.12h-37.7a4.11,4.11,0,0,1-4.12-4.12V4.13A4.11,4.11,0,0,1,922.16,0h37.71A4.13,4.13,0,0,1,964,4.12v96.41c0,1.36,1.54,2.47,2.91,2.47h120.53a2.61,2.61,0,0,0,2.63-2.47V4.16A4.12,4.12,0,0,1,1094.19,0l36.64,0A4.12,4.12,0,0,1,1135,4.12V250.71a4.11,4.11,0,0,1-4.12,4.12h-36.67A4.11,4.11,0,0,1,1090,250.71Z"/><path class="cls-1" d="M1440,250.76V4.24a4.13,4.13,0,0,1,4.13-4.12h177.71A4.12,4.12,0,0,1,1626,4.24v34.6a4.13,4.13,0,0,1-4.13,4.13H1485.42a2.48,2.48,0,0,0-2.48,2.47v55.14a2.47,2.47,0,0,0,2.48,2.47h116.39a4.13,4.13,0,0,1,4.13,4.13v36.53a4.24,4.24,0,0,1-4.13,4.25H1485.42a2.48,2.48,0,0,0-2.48,2.48v59.1a2.48,2.48,0,0,0,2.48,2.47h136.42c2.28,0,4.13,2.29,4.13,4.57v34.18a4.13,4.13,0,0,1-4.13,4.12H1444.13A4.13,4.13,0,0,1,1440,250.76Z"/><path class="cls-1" d="M1785.92,254.79c-38.23,0-71-12.92-94.83-37.34-22.59-23.17-35-55.19-35-90.15,0-35.24,12.19-67.24,34.27-90.13C1713.82,12.81,1747,0,1786.39,0l73.49.08A4.13,4.13,0,0,1,1864,4.22V38.86a4.12,4.12,0,0,1-4.13,4.12l-74,0c-50.76.74-84,35.17-84,84.34,0,23,8.81,44.07,24.21,59.22s35.68,24.51,58.9,24.51l74.83,0a4.12,4.12,0,0,1,4.12,4.12V250.7a4.12,4.12,0,0,1-4.13,4.12Z"/><path class="cls-1" d="M252.94,250.8,253,4.16A4.12,4.12,0,0,1,257.15,0H292.6a6.59,6.59,0,0,1,5.14,2.46L434.57,171.65a2.53,2.53,0,0,0,4.48-1.55L439,4.2A4.12,4.12,0,0,1,443.15.08l36.63,0a4.13,4.13,0,0,1,4.13,4.12V251a4.12,4.12,0,0,1-4.3,3.94H444.06a6.42,6.42,0,0,1-5.13-2.26L301.83,82.1c-1.46-1.82-4.9-.78-4.9,1.55l-.1,167.16a4.12,4.12,0,0,1-4.13,4.12H256.91A4,4,0,0,1,252.94,250.8Z"/><path class="cls-1" d="M0,250.7.07,4.16A4.12,4.12,0,0,1,4.19,0H40.88A4.12,4.12,0,0,1,45,4.16L45,250.7a4.12,4.12,0,0,1-4.11,4.13H4.12A4.12,4.12,0,0,1,0,250.7Z"/><path class="cls-1" d="M155.81,255a6.62,6.62,0,0,1-5.13-2.44L71.54,155A42.57,42.57,0,0,1,62,128.17h0a48.08,48.08,0,0,1,10.83-30.4L151.41,2.5A6.58,6.58,0,0,1,156.56.07H207a2.48,2.48,0,0,1,1.9,4.05l-100,120.41a4.14,4.14,0,0,0,0,5.25l100,121.16a2.48,2.48,0,0,1-1.91,4.05Z"/><path class="cls-1" d="M758.05,254.9c-38.22,0-71-13.44-94.82-37.87-22.62-23.18-35.06-55.19-35-90.14,0-35.23,12.17-67.24,34.25-90.13C686,12.39,719.16,0,758.48,0l89.46,0a4.06,4.06,0,0,1,4,4.12V40.87A4.13,4.13,0,0,1,847.83,45L758,44.94c-50.76.75-83.1,32.78-83.1,82,0,23,8,44.07,23.36,59.21s35.76,23,59.13,23l55.28.1a2.48,2.48,0,0,0,2.48-2.48V150.43a2.48,2.48,0,0,0-2.48-2.47H757.25a4.13,4.13,0,0,1-4.13-4.12V107.15a4.12,4.12,0,0,1,4.13-4.12h98.53a4.12,4.12,0,0,1,4.13,4.12V250.76a4.13,4.13,0,0,1-4.13,4.12Z"/><path class="cls-1" d="M1264.09,250.76V45.35a2.47,2.47,0,0,0-2.47-2.47h-81.45a4.12,4.12,0,0,1-4.13-4.12V4.24a4.12,4.12,0,0,1,4.13-4.12h213.67A4.11,4.11,0,0,1,1398,4.24V38.75a4.11,4.11,0,0,1-4.12,4.12h-81.39a2.48,2.48,0,0,0-2.47,2.48V250.76a4.41,4.41,0,0,1-4.44,4.13h-37.32A4.13,4.13,0,0,1,1264.09,250.76Z"/></g></g></svg>